<mxfile host="app.diagrams.net" modified="2023-11-13T08:10:36.010Z" agent="Mozilla/5.0 (Windows NT 10.0; Win64; x64) AppleWebKit/537.36 (KHTML, like Gecko) Chrome/118.0.0.0 Safari/537.36 Edg/118.0.2088.76" etag="m6MMC-qaIw4AapMoTPE8" version="22.1.0" type="github">
  <diagram name="第 1 页" id="wfO7yXKIp2ingDLLFF1z">
    <mxGraphModel dx="887" dy="572" grid="1" gridSize="10" guides="1" tooltips="1" connect="1" arrows="1" fold="1" page="1" pageScale="1" pageWidth="827" pageHeight="1169" math="0" shadow="0">
      <root>
        <mxCell id="0" />
        <mxCell id="1" parent="0" />
        <mxCell id="-vNTRbc1L1377j3PWeBs-1" value="" style="rounded=1;whiteSpace=wrap;html=1;" vertex="1" parent="1">
          <mxGeometry x="160" y="170" width="600" height="120" as="geometry" />
        </mxCell>
        <mxCell id="-vNTRbc1L1377j3PWeBs-2" value="project" style="rounded=1;whiteSpace=wrap;html=1;" vertex="1" parent="1">
          <mxGeometry x="350" y="195" width="120" height="60" as="geometry" />
        </mxCell>
        <mxCell id="-vNTRbc1L1377j3PWeBs-3" value="Research" style="text;html=1;strokeColor=none;fillColor=none;align=center;verticalAlign=middle;whiteSpace=wrap;rounded=0;" vertex="1" parent="1">
          <mxGeometry x="230" y="210" width="60" height="30" as="geometry" />
        </mxCell>
        <mxCell id="-vNTRbc1L1377j3PWeBs-4" value="group" style="rounded=1;whiteSpace=wrap;html=1;" vertex="1" parent="1">
          <mxGeometry x="540" y="195" width="120" height="60" as="geometry" />
        </mxCell>
        <mxCell id="-vNTRbc1L1377j3PWeBs-5" value="" style="rounded=1;whiteSpace=wrap;html=1;" vertex="1" parent="1">
          <mxGeometry x="160" y="350" width="600" height="120" as="geometry" />
        </mxCell>
        <mxCell id="-vNTRbc1L1377j3PWeBs-7" value="user info" style="text;html=1;strokeColor=none;fillColor=none;align=center;verticalAlign=middle;whiteSpace=wrap;rounded=0;" vertex="1" parent="1">
          <mxGeometry x="230" y="390" width="60" height="30" as="geometry" />
        </mxCell>
        <mxCell id="-vNTRbc1L1377j3PWeBs-8" value="basic" style="rounded=1;whiteSpace=wrap;html=1;" vertex="1" parent="1">
          <mxGeometry x="354" y="375" width="120" height="60" as="geometry" />
        </mxCell>
        <mxCell id="-vNTRbc1L1377j3PWeBs-9" value="costom" style="rounded=1;whiteSpace=wrap;html=1;" vertex="1" parent="1">
          <mxGeometry x="540" y="375" width="120" height="60" as="geometry" />
        </mxCell>
      </root>
    </mxGraphModel>
  </diagram>
</mxfile>
